# xmcd
#
# Track frame offsets:
#	150
#	19611
#	39619
#	61341
#	75786
#	99210
#	119093
#	134807
#	142656
#	163021
#	188123
#	209211
#	228488
#	251628
#	273925
#	277522
#	286371
#
# Disc length: 4079 seconds
#
# Revision: 1
# Processed by: cddbd v1.5.2PL0 Copyright (c) Steve Scherf et al.
# Submitted via: audiograbber 1.83.01
#
DISCID=ee0fed11
DTITLE=Various Artist - Ridin' Dirty in the South: The Ultimate Southern Hip-H
DTITLE=op Collection D1
DYEAR=2006
DGENRE=Rap
TTITLE0=E.S.G. - Hold Up
TTITLE1=Slim Thug - Ballers
TTITLE2=Quint Black - Your Bitch
TTITLE3=Lil' Keke - Squash Da Chat
TTITLE4=C-Note (Clover-G's) - Closure
TTITLE5=Pastor Troy - Fuck Y'all
TTITLE6=E.S.G. - You Ain't Shit
TTITLE7=Magno - The One
TTITLE8=Ska-Face Al Kapone - Full of Dro
TTITLE9=South Park Mexican - Illegal Amigos
TTITLE10=Capone - All the Time
TTITLE11=DJ Squeeky - Don't Play
TTITLE12=Yungstar - S.U.C. for Life
TTITLE13=Wreckshop - Candy Paint
TTITLE14=Juvenile f./ Papa Reu - Bubble Eye
TTITLE15=Z-Ro f./ Papa Reu - Lookin' Good
TTITLE16=Money Black f./ Scarface - I Got Thangs
EXTD=
EXTT0=
EXTT1=
EXTT2=
EXTT3=
EXTT4=
EXTT5=
EXTT6=
EXTT7=
EXTT8=
EXTT9=
EXTT10=
EXTT11=
EXTT12=
EXTT13=
EXTT14=
EXTT15=
EXTT16=
PLAYORDER=
